solid OpenSCAD_Model
  facet normal 0 1 -0
    outer loop
      vertex 1.5 1.5 17.8
      vertex 0 1.5 21.4
      vertex 1.5 1.5 21.4
    endloop
  endfacet
  facet normal 0 1 0
    outer loop
      vertex 0 1.5 21.4
      vertex 1.5 1.5 17.8
      vertex 0 1.5 17.8
    endloop
  endfacet
  facet normal 0 1 0
    outer loop
      vertex 71.5 1.5 21.4
      vertex 70 1.5 17.8
      vertex 70 1.5 21.4
    endloop
  endfacet
  facet normal 0 1 0
    outer loop
      vertex 70 1.5 17.8
      vertex 64.25 1.5 14.2
      vertex 64.25 1.5 17.8
    endloop
  endfacet
  facet normal 0 1 0
    outer loop
      vertex 71.5 1.5 0.95
      vertex 64.25 1.5 14.2
      vertex 70 1.5 17.8
    endloop
  endfacet
  facet normal 0 1 0
    outer loop
      vertex 71.5 1.5 0.95
      vertex 60.5687 1.5 14
      vertex 64.05 1.5 14
    endloop
  endfacet
  facet normal 0 1 0
    outer loop
      vertex 60.5687 1.5 14
      vertex 71.5 1.5 0.95
      vertex 49.825 1.5 14
    endloop
  endfacet
  facet normal 0 1 0
    outer loop
      vertex 49.825 1.5 14
      vertex 71.5 1.5 0.95
      vertex 46.3437 1.5 14
    endloop
  endfacet
  facet normal 0 1 0
    outer loop
      vertex 46.3437 1.5 14
      vertex 71.5 1.5 0.95
      vertex 35.6 1.5 14
    endloop
  endfacet
  facet normal 0 1 0
    outer loop
      vertex 1.5 1.5 0.95
      vertex 35.6 1.5 14
      vertex 71.5 1.5 0.95
    endloop
  endfacet
  facet normal 0 1 0
    outer loop
      vertex 35.6 1.5 14
      vertex 1.5 1.5 0.95
      vertex 32.1187 1.5 14
    endloop
  endfacet
  facet normal 0 1 0
    outer loop
      vertex 32.1187 1.5 14
      vertex 1.5 1.5 0.95
      vertex 21.375 1.5 14
    endloop
  endfacet
  facet normal 0 1 0
    outer loop
      vertex 64.25 1.5 14.2
      vertex 71.5 1.5 0.95
      vertex 64.05 1.5 14
    endloop
  endfacet
  facet normal 0 1 -0
    outer loop
      vertex 71.5 1.5 0.95
      vertex 70 1.5 17.8
      vertex 71.5 1.5 21.4
    endloop
  endfacet
  facet normal 0 1 0
    outer loop
      vertex 60.4273 1.5 14.0586
      vertex 54.3025 1.5 16.1
      vertex 58.3859 1.5 16.1
    endloop
  endfacet
  facet normal 0 1 0
    outer loop
      vertex 49.825 1.5 14
      vertex 54.3025 1.5 16.1
      vertex 60.4273 1.5 14.0586
    endloop
  endfacet
  facet normal 0 1 0
    outer loop
      vertex 49.825 1.5 14
      vertex 60.4273 1.5 14.0586
      vertex 60.5687 1.5 14
    endloop
  endfacet
  facet normal 0 1 0
    outer loop
      vertex 54.3025 1.5 16.1
      vertex 49.825 1.5 14
      vertex 50.025 1.5 14.2
    endloop
  endfacet
  facet normal 0 1 -0
    outer loop
      vertex 54.1025 1.5 16.3
      vertex 50.025 1.5 17.8
      vertex 54.1025 1.5 17.8
    endloop
  endfacet
  facet normal 0 1 0
    outer loop
      vertex 50.025 1.5 14.2
      vertex 54.1025 1.5 16.3
      vertex 54.3025 1.5 16.1
    endloop
  endfacet
  facet normal 0 1 0
    outer loop
      vertex 54.1025 1.5 16.3
      vertex 50.025 1.5 14.2
      vertex 50.025 1.5 17.8
    endloop
  endfacet
  facet normal 0 1 0
    outer loop
      vertex 46.2023 1.5 14.0586
      vertex 40.0775 1.5 16.1
      vertex 44.1609 1.5 16.1
    endloop
  endfacet
  facet normal 0 1 0
    outer loop
      vertex 35.6 1.5 14
      vertex 40.0775 1.5 16.1
      vertex 46.2023 1.5 14.0586
    endloop
  endfacet
  facet normal 0 1 0
    outer loop
      vertex 35.6 1.5 14
      vertex 46.2023 1.5 14.0586
      vertex 46.3437 1.5 14
    endloop
  endfacet
  facet normal 0 1 0
    outer loop
      vertex 40.0775 1.5 16.1
      vertex 35.6 1.5 14
      vertex 35.8 1.5 14.2
    endloop
  endfacet
  facet normal 0 1 -0
    outer loop
      vertex 39.8775 1.5 16.3
      vertex 35.8 1.5 17.8
      vertex 39.8775 1.5 17.8
    endloop
  endfacet
  facet normal 0 1 0
    outer loop
      vertex 35.8 1.5 14.2
      vertex 39.8775 1.5 16.3
      vertex 40.0775 1.5 16.1
    endloop
  endfacet
  facet normal 0 1 0
    outer loop
      vertex 39.8775 1.5 16.3
      vertex 35.8 1.5 14.2
      vertex 35.8 1.5 17.8
    endloop
  endfacet
  facet normal 0 1 0
    outer loop
      vertex 31.9773 1.5 14.0586
      vertex 25.8525 1.5 16.1
      vertex 29.9359 1.5 16.1
    endloop
  endfacet
  facet normal 0 1 0
    outer loop
      vertex 21.375 1.5 14
      vertex 25.8525 1.5 16.1
      vertex 31.9773 1.5 14.0586
    endloop
  endfacet
  facet normal 0 1 0
    outer loop
      vertex 21.375 1.5 14
      vertex 31.9773 1.5 14.0586
      vertex 32.1187 1.5 14
    endloop
  endfacet
  facet normal 0 1 0
    outer loop
      vertex 25.8525 1.5 16.1
      vertex 21.375 1.5 14
      vertex 21.575 1.5 14.2
    endloop
  endfacet
  facet normal 0 1 -0
    outer loop
      vertex 25.6525 1.5 16.3
      vertex 21.575 1.5 17.8
      vertex 25.6525 1.5 17.8
    endloop
  endfacet
  facet normal 0 1 0
    outer loop
      vertex 21.575 1.5 14.2
      vertex 25.6525 1.5 16.3
      vertex 25.8525 1.5 16.1
    endloop
  endfacet
  facet normal 0 1 0
    outer loop
      vertex 25.6525 1.5 16.3
      vertex 21.575 1.5 14.2
      vertex 21.575 1.5 17.8
    endloop
  endfacet
  facet normal 0 1 0
    outer loop
      vertex 15.7109 1.5 16.1
      vertex 17.7523 1.5 14.0586
      vertex 11.6275 1.5 16.1
    endloop
  endfacet
  facet normal 0 1 -0
    outer loop
      vertex 11.4275 1.5 16.3
      vertex 1.5 1.5 17.8
      vertex 11.4275 1.5 17.8
    endloop
  endfacet
  facet normal 0 1 0
    outer loop
      vertex 11.6275 1.5 16.1
      vertex 1.5 1.5 17.8
      vertex 11.4275 1.5 16.3
    endloop
  endfacet
  facet normal 0 1 0
    outer loop
      vertex 1.5 1.5 0.95
      vertex 11.6275 1.5 16.1
      vertex 17.7523 1.5 14.0586
    endloop
  endfacet
  facet normal 0 1 0
    outer loop
      vertex 1.5 1.5 0.95
      vertex 17.7523 1.5 14.0586
      vertex 17.8937 1.5 14
    endloop
  endfacet
  facet normal 0 1 0
    outer loop
      vertex 21.375 1.5 14
      vertex 1.5 1.5 0.95
      vertex 17.8937 1.5 14
    endloop
  endfacet
  facet normal 0 1 0
    outer loop
      vertex 11.6275 1.5 16.1
      vertex 1.5 1.5 0.95
      vertex 1.5 1.5 17.8
    endloop
  endfacet
  facet normal -1 0 0
    outer loop
      vertex 21.575 0 14.2
      vertex 21.575 1.5 17.8
      vertex 21.575 1.5 14.2
    endloop
  endfacet
  facet normal -1 -0 0
    outer loop
      vertex 21.575 1.5 17.8
      vertex 21.575 0 14.2
      vertex 21.575 0 17.8
    endloop
  endfacet
  facet normal 1 -0 0
    outer loop
      vertex 11.4275 0 17.8
      vertex 11.4275 1.5 16.3
      vertex 11.4275 1.5 17.8
    endloop
  endfacet
  facet normal 1 0 0
    outer loop
      vertex 11.4275 1.5 16.3
      vertex 11.4275 0 17.8
      vertex 11.4275 0 16.3
    endloop
  endfacet
  facet normal 0.707107 -0 0.707107
    outer loop
      vertex 11.4275 0 16.3
      vertex 11.6275 1.5 16.1
      vertex 11.4275 1.5 16.3
    endloop
  endfacet
  facet normal 0.707107 0 0.707107
    outer loop
      vertex 11.6275 1.5 16.1
      vertex 11.4275 0 16.3
      vertex 11.6275 0 16.1
    endloop
  endfacet
  facet normal -0 0 1
    outer loop
      vertex 11.6275 1.5 16.1
      vertex 15.7109 0 16.1
      vertex 15.7109 1.5 16.1
    endloop
  endfacet
  facet normal 0 0 1
    outer loop
      vertex 15.7109 0 16.1
      vertex 11.6275 1.5 16.1
      vertex 11.6275 0 16.1
    endloop
  endfacet
  facet normal 0.707107 0 0.707107
    outer loop
      vertex 15.7109 1.5 16.1
      vertex 17.7523 0 14.0586
      vertex 17.7523 1.5 14.0586
    endloop
  endfacet
  facet normal 0.707107 0 0.707107
    outer loop
      vertex 17.7523 0 14.0586
      vertex 15.7109 1.5 16.1
      vertex 15.7109 0 16.1
    endloop
  endfacet
  facet normal 0.382852 0 0.92381
    outer loop
      vertex 17.7523 1.5 14.0586
      vertex 17.8937 0 14
      vertex 17.8937 1.5 14
    endloop
  endfacet
  facet normal 0.382852 0 0.92381
    outer loop
      vertex 17.8937 0 14
      vertex 17.7523 1.5 14.0586
      vertex 17.7523 0 14.0586
    endloop
  endfacet
  facet normal -0 0 1
    outer loop
      vertex 17.8937 1.5 14
      vertex 21.375 0 14
      vertex 21.375 1.5 14
    endloop
  endfacet
  facet normal 0 0 1
    outer loop
      vertex 21.375 0 14
      vertex 17.8937 1.5 14
      vertex 17.8937 0 14
    endloop
  endfacet
  facet normal -0.707107 0 0.707107
    outer loop
      vertex 21.375 0 14
      vertex 21.575 1.5 14.2
      vertex 21.375 1.5 14
    endloop
  endfacet
  facet normal -0.707107 0 0.707107
    outer loop
      vertex 21.575 1.5 14.2
      vertex 21.375 0 14
      vertex 21.575 0 14.2
    endloop
  endfacet
  facet normal -1 0 0
    outer loop
      vertex 35.8 0 14.2
      vertex 35.8 1.5 17.8
      vertex 35.8 1.5 14.2
    endloop
  endfacet
  facet normal -1 -0 0
    outer loop
      vertex 35.8 1.5 17.8
      vertex 35.8 0 14.2
      vertex 35.8 0 17.8
    endloop
  endfacet
  facet normal 1 -0 0
    outer loop
      vertex 25.6525 0 17.8
      vertex 25.6525 1.5 16.3
      vertex 25.6525 1.5 17.8
    endloop
  endfacet
  facet normal 1 0 0
    outer loop
      vertex 25.6525 1.5 16.3
      vertex 25.6525 0 17.8
      vertex 25.6525 0 16.3
    endloop
  endfacet
  facet normal 0.707107 -0 0.707107
    outer loop
      vertex 25.6525 0 16.3
      vertex 25.8525 1.5 16.1
      vertex 25.6525 1.5 16.3
    endloop
  endfacet
  facet normal 0.707107 0 0.707107
    outer loop
      vertex 25.8525 1.5 16.1
      vertex 25.6525 0 16.3
      vertex 25.8525 0 16.1
    endloop
  endfacet
  facet normal -0 0 1
    outer loop
      vertex 25.8525 1.5 16.1
      vertex 29.9359 0 16.1
      vertex 29.9359 1.5 16.1
    endloop
  endfacet
  facet normal 0 0 1
    outer loop
      vertex 29.9359 0 16.1
      vertex 25.8525 1.5 16.1
      vertex 25.8525 0 16.1
    endloop
  endfacet
  facet normal 0.707107 0 0.707107
    outer loop
      vertex 29.9359 1.5 16.1
      vertex 31.9773 0 14.0586
      vertex 31.9773 1.5 14.0586
    endloop
  endfacet
  facet normal 0.707107 0 0.707107
    outer loop
      vertex 31.9773 0 14.0586
      vertex 29.9359 1.5 16.1
      vertex 29.9359 0 16.1
    endloop
  endfacet
  facet normal 0.382852 0 0.92381
    outer loop
      vertex 31.9773 1.5 14.0586
      vertex 32.1187 0 14
      vertex 32.1187 1.5 14
    endloop
  endfacet
  facet normal 0.382852 0 0.92381
    outer loop
      vertex 32.1187 0 14
      vertex 31.9773 1.5 14.0586
      vertex 31.9773 0 14.0586
    endloop
  endfacet
  facet normal -0 0 1
    outer loop
      vertex 32.1187 1.5 14
      vertex 35.6 0 14
      vertex 35.6 1.5 14
    endloop
  endfacet
  facet normal 0 0 1
    outer loop
      vertex 35.6 0 14
      vertex 32.1187 1.5 14
      vertex 32.1187 0 14
    endloop
  endfacet
  facet normal -0.707107 0 0.707107
    outer loop
      vertex 35.6 0 14
      vertex 35.8 1.5 14.2
      vertex 35.6 1.5 14
    endloop
  endfacet
  facet normal -0.707107 0 0.707107
    outer loop
      vertex 35.8 1.5 14.2
      vertex 35.6 0 14
      vertex 35.8 0 14.2
    endloop
  endfacet
  facet normal -1 0 0
    outer loop
      vertex 50.025 0 14.2
      vertex 50.025 1.5 17.8
      vertex 50.025 1.5 14.2
    endloop
  endfacet
  facet normal -1 -0 0
    outer loop
      vertex 50.025 1.5 17.8
      vertex 50.025 0 14.2
      vertex 50.025 0 17.8
    endloop
  endfacet
  facet normal 1 -0 0
    outer loop
      vertex 39.8775 0 17.8
      vertex 39.8775 1.5 16.3
      vertex 39.8775 1.5 17.8
    endloop
  endfacet
  facet normal 1 0 0
    outer loop
      vertex 39.8775 1.5 16.3
      vertex 39.8775 0 17.8
      vertex 39.8775 0 16.3
    endloop
  endfacet
  facet normal 0.707107 -0 0.707107
    outer loop
      vertex 39.8775 0 16.3
      vertex 40.0775 1.5 16.1
      vertex 39.8775 1.5 16.3
    endloop
  endfacet
  facet normal 0.707107 0 0.707107
    outer loop
      vertex 40.0775 1.5 16.1
      vertex 39.8775 0 16.3
      vertex 40.0775 0 16.1
    endloop
  endfacet
  facet normal -0 0 1
    outer loop
      vertex 40.0775 1.5 16.1
      vertex 44.1609 0 16.1
      vertex 44.1609 1.5 16.1
    endloop
  endfacet
  facet normal 0 0 1
    outer loop
      vertex 44.1609 0 16.1
      vertex 40.0775 1.5 16.1
      vertex 40.0775 0 16.1
    endloop
  endfacet
  facet normal 0.707107 0 0.707107
    outer loop
      vertex 44.1609 1.5 16.1
      vertex 46.2023 0 14.0586
      vertex 46.2023 1.5 14.0586
    endloop
  endfacet
  facet normal 0.707107 0 0.707107
    outer loop
      vertex 46.2023 0 14.0586
      vertex 44.1609 1.5 16.1
      vertex 44.1609 0 16.1
    endloop
  endfacet
  facet normal 0.382852 0 0.92381
    outer loop
      vertex 46.2023 1.5 14.0586
      vertex 46.3437 0 14
      vertex 46.3437 1.5 14
    endloop
  endfacet
  facet normal 0.382852 0 0.92381
    outer loop
      vertex 46.3437 0 14
      vertex 46.2023 1.5 14.0586
      vertex 46.2023 0 14.0586
    endloop
  endfacet
  facet normal -0 0 1
    outer loop
      vertex 46.3437 1.5 14
      vertex 49.825 0 14
      vertex 49.825 1.5 14
    endloop
  endfacet
  facet normal 0 0 1
    outer loop
      vertex 49.825 0 14
      vertex 46.3437 1.5 14
      vertex 46.3437 0 14
    endloop
  endfacet
  facet normal -0.707107 0 0.707107
    outer loop
      vertex 49.825 0 14
      vertex 50.025 1.5 14.2
      vertex 49.825 1.5 14
    endloop
  endfacet
  facet normal -0.707107 0 0.707107
    outer loop
      vertex 50.025 1.5 14.2
      vertex 49.825 0 14
      vertex 50.025 0 14.2
    endloop
  endfacet
  facet normal -1 0 0
    outer loop
      vertex 64.25 0 14.2
      vertex 64.25 1.5 17.8
      vertex 64.25 1.5 14.2
    endloop
  endfacet
  facet normal -1 -0 0
    outer loop
      vertex 64.25 1.5 17.8
      vertex 64.25 0 14.2
      vertex 64.25 0 17.8
    endloop
  endfacet
  facet normal 1 -0 0
    outer loop
      vertex 54.1025 0 17.8
      vertex 54.1025 1.5 16.3
      vertex 54.1025 1.5 17.8
    endloop
  endfacet
  facet normal 1 0 0
    outer loop
      vertex 54.1025 1.5 16.3
      vertex 54.1025 0 17.8
      vertex 54.1025 0 16.3
    endloop
  endfacet
  facet normal 0.707107 -0 0.707107
    outer loop
      vertex 54.1025 0 16.3
      vertex 54.3025 1.5 16.1
      vertex 54.1025 1.5 16.3
    endloop
  endfacet
  facet normal 0.707107 0 0.707107
    outer loop
      vertex 54.3025 1.5 16.1
      vertex 54.1025 0 16.3
      vertex 54.3025 0 16.1
    endloop
  endfacet
  facet normal -0 0 1
    outer loop
      vertex 54.3025 1.5 16.1
      vertex 58.3859 0 16.1
      vertex 58.3859 1.5 16.1
    endloop
  endfacet
  facet normal 0 0 1
    outer loop
      vertex 58.3859 0 16.1
      vertex 54.3025 1.5 16.1
      vertex 54.3025 0 16.1
    endloop
  endfacet
  facet normal 0.707107 0 0.707107
    outer loop
      vertex 58.3859 1.5 16.1
      vertex 60.4273 0 14.0586
      vertex 60.4273 1.5 14.0586
    endloop
  endfacet
  facet normal 0.707107 0 0.707107
    outer loop
      vertex 60.4273 0 14.0586
      vertex 58.3859 1.5 16.1
      vertex 58.3859 0 16.1
    endloop
  endfacet
  facet normal 0.382852 0 0.92381
    outer loop
      vertex 60.4273 1.5 14.0586
      vertex 60.5687 0 14
      vertex 60.5687 1.5 14
    endloop
  endfacet
  facet normal 0.382852 0 0.92381
    outer loop
      vertex 60.5687 0 14
      vertex 60.4273 1.5 14.0586
      vertex 60.4273 0 14.0586
    endloop
  endfacet
  facet normal -0 0 1
    outer loop
      vertex 60.5687 1.5 14
      vertex 64.05 0 14
      vertex 64.05 1.5 14
    endloop
  endfacet
  facet normal 0 0 1
    outer loop
      vertex 64.05 0 14
      vertex 60.5687 1.5 14
      vertex 60.5687 0 14
    endloop
  endfacet
  facet normal -0.707107 0 0.707107
    outer loop
      vertex 64.05 0 14
      vertex 64.25 1.5 14.2
      vertex 64.05 1.5 14
    endloop
  endfacet
  facet normal -0.707107 0 0.707107
    outer loop
      vertex 64.25 1.5 14.2
      vertex 64.05 0 14
      vertex 64.25 0 14.2
    endloop
  endfacet
  facet normal 1 0 0
    outer loop
      vertex 71.5 1.5 21.4
      vertex 71.5 0 21.4
      vertex 71.5 1.5 0.95
    endloop
  endfacet
  facet normal 1 0 0
    outer loop
      vertex 71.5 94.5 0.95
      vertex 71.5 96 21.4
      vertex 71.5 94.5 21.4
    endloop
  endfacet
  facet normal 1 0 0
    outer loop
      vertex 71.5 96 21.4
      vertex 71.5 94.5 0.95
      vertex 71.5 96 0
    endloop
  endfacet
  facet normal 1 -0 0
    outer loop
      vertex 71.5 1.5 0.95
      vertex 71.5 96 0
      vertex 71.5 94.5 0.95
    endloop
  endfacet
  facet normal 1 0 0
    outer loop
      vertex 71.5 1.5 0.95
      vertex 71.5 0 0
      vertex 71.5 96 0
    endloop
  endfacet
  facet normal 1 0 0
    outer loop
      vertex 71.5 0 0
      vertex 71.5 1.5 0.95
      vertex 71.5 0 21.4
    endloop
  endfacet
  facet normal -0 0 1
    outer loop
      vertex 0 96 21.4
      vertex 1.5 94.5 21.4
      vertex 1.5 96 21.4
    endloop
  endfacet
  facet normal 0 0 1
    outer loop
      vertex 1.5 94.5 21.4
      vertex 0 96 21.4
      vertex 0 94.5 21.4
    endloop
  endfacet
  facet normal -0 0 1
    outer loop
      vertex 70 96 21.4
      vertex 71.5 94.5 21.4
      vertex 71.5 96 21.4
    endloop
  endfacet
  facet normal 0 0 1
    outer loop
      vertex 71.5 94.5 21.4
      vertex 70 96 21.4
      vertex 70 94.5 21.4
    endloop
  endfacet
  facet normal -0 0 1
    outer loop
      vertex 0 1.5 21.4
      vertex 1.5 0 21.4
      vertex 1.5 1.5 21.4
    endloop
  endfacet
  facet normal 0 0 1
    outer loop
      vertex 1.5 0 21.4
      vertex 0 1.5 21.4
      vertex 0 0 21.4
    endloop
  endfacet
  facet normal -0 0 1
    outer loop
      vertex 70 1.5 21.4
      vertex 71.5 0 21.4
      vertex 71.5 1.5 21.4
    endloop
  endfacet
  facet normal 0 0 1
    outer loop
      vertex 71.5 0 21.4
      vertex 70 1.5 21.4
      vertex 70 0 21.4
    endloop
  endfacet
  facet normal 0 0 -1
    outer loop
      vertex 0 0 0
      vertex 71.5 96 0
      vertex 71.5 0 0
    endloop
  endfacet
  facet normal -0 0 -1
    outer loop
      vertex 71.5 96 0
      vertex 0 0 0
      vertex 0 96 0
    endloop
  endfacet
  facet normal -1 0 0
    outer loop
      vertex 0 96 0
      vertex 0 94.5 17.8
      vertex 0 96 21.4
    endloop
  endfacet
  facet normal -1 0 0
    outer loop
      vertex 0 96 0
      vertex 0 1.5 17.8
      vertex 0 94.5 17.8
    endloop
  endfacet
  facet normal -1 0 0
    outer loop
      vertex 0 0 0
      vertex 0 1.5 17.8
      vertex 0 96 0
    endloop
  endfacet
  facet normal -1 0 0
    outer loop
      vertex 0 0 21.4
      vertex 0 1.5 17.8
      vertex 0 0 0
    endloop
  endfacet
  facet normal -1 0 0
    outer loop
      vertex 0 1.5 17.8
      vertex 0 0 21.4
      vertex 0 1.5 21.4
    endloop
  endfacet
  facet normal -1 -0 0
    outer loop
      vertex 0 96 21.4
      vertex 0 94.5 17.8
      vertex 0 94.5 21.4
    endloop
  endfacet
  facet normal 0 1 0
    outer loop
      vertex 71.5 96 21.4
      vertex 70 96 17.8
      vertex 70 96 21.4
    endloop
  endfacet
  facet normal 0 1 0
    outer loop
      vertex 70 96 17.8
      vertex 71.5 96 0
      vertex 1.5 96 17.8
    endloop
  endfacet
  facet normal 0 1 -0
    outer loop
      vertex 71.5 96 0
      vertex 70 96 17.8
      vertex 71.5 96 21.4
    endloop
  endfacet
  facet normal 0 1 -0
    outer loop
      vertex 1.5 96 17.8
      vertex 0 96 21.4
      vertex 1.5 96 21.4
    endloop
  endfacet
  facet normal 0 1 0
    outer loop
      vertex 1.5 96 17.8
      vertex 0 96 0
      vertex 0 96 21.4
    endloop
  endfacet
  facet normal 0 1 0
    outer loop
      vertex 0 96 0
      vertex 1.5 96 17.8
      vertex 71.5 96 0
    endloop
  endfacet
  facet normal 0 -1 0
    outer loop
      vertex 0 0 21.4
      vertex 1.5 0 17.8
      vertex 1.5 0 21.4
    endloop
  endfacet
  facet normal 0 -1 0
    outer loop
      vertex 1.5 0 17.8
      vertex 11.4275 0 16.3
      vertex 11.4275 0 17.8
    endloop
  endfacet
  facet normal 0 -1 0
    outer loop
      vertex 1.5 0 17.8
      vertex 11.6275 0 16.1
      vertex 11.4275 0 16.3
    endloop
  endfacet
  facet normal 0 -1 0
    outer loop
      vertex 11.6275 0 16.1
      vertex 17.7523 0 14.0586
      vertex 15.7109 0 16.1
    endloop
  endfacet
  facet normal 0 -1 0
    outer loop
      vertex 0 0 0
      vertex 11.6275 0 16.1
      vertex 1.5 0 17.8
    endloop
  endfacet
  facet normal 0 -1 -0
    outer loop
      vertex 11.6275 0 16.1
      vertex 0 0 0
      vertex 17.7523 0 14.0586
    endloop
  endfacet
  facet normal 0 -1 0
    outer loop
      vertex 0 0 0
      vertex 21.375 0 14
      vertex 17.8937 0 14
    endloop
  endfacet
  facet normal 0 -1 -0
    outer loop
      vertex 21.375 0 14
      vertex 0 0 0
      vertex 32.1187 0 14
    endloop
  endfacet
  facet normal 0 -1 -0
    outer loop
      vertex 32.1187 0 14
      vertex 0 0 0
      vertex 35.6 0 14
    endloop
  endfacet
  facet normal 0 -1 0
    outer loop
      vertex 71.5 0 0
      vertex 35.6 0 14
      vertex 0 0 0
    endloop
  endfacet
  facet normal 0 -1 0
    outer loop
      vertex 35.6 0 14
      vertex 71.5 0 0
      vertex 46.3437 0 14
    endloop
  endfacet
  facet normal 0 -1 0
    outer loop
      vertex 49.825 0 14
      vertex 71.5 0 0
      vertex 60.5687 0 14
    endloop
  endfacet
  facet normal 0 -1 0
    outer loop
      vertex 46.3437 0 14
      vertex 71.5 0 0
      vertex 49.825 0 14
    endloop
  endfacet
  facet normal 0 -1 -0
    outer loop
      vertex 17.7523 0 14.0586
      vertex 0 0 0
      vertex 17.8937 0 14
    endloop
  endfacet
  facet normal 0 -1 0
    outer loop
      vertex 0 0 0
      vertex 1.5 0 17.8
      vertex 0 0 21.4
    endloop
  endfacet
  facet normal 0 -1 0
    outer loop
      vertex 21.575 0 17.8
      vertex 25.6525 0 16.3
      vertex 25.6525 0 17.8
    endloop
  endfacet
  facet normal 0 -1 0
    outer loop
      vertex 21.575 0 14.2
      vertex 25.6525 0 16.3
      vertex 21.575 0 17.8
    endloop
  endfacet
  facet normal 0 -1 -0
    outer loop
      vertex 25.6525 0 16.3
      vertex 21.575 0 14.2
      vertex 25.8525 0 16.1
    endloop
  endfacet
  facet normal 0 -1 0
    outer loop
      vertex 21.375 0 14
      vertex 25.8525 0 16.1
      vertex 21.575 0 14.2
    endloop
  endfacet
  facet normal 0 -1 0
    outer loop
      vertex 25.8525 0 16.1
      vertex 31.9773 0 14.0586
      vertex 29.9359 0 16.1
    endloop
  endfacet
  facet normal 0 -1 -0
    outer loop
      vertex 25.8525 0 16.1
      vertex 21.375 0 14
      vertex 31.9773 0 14.0586
    endloop
  endfacet
  facet normal 0 -1 -0
    outer loop
      vertex 31.9773 0 14.0586
      vertex 21.375 0 14
      vertex 32.1187 0 14
    endloop
  endfacet
  facet normal 0 -1 0
    outer loop
      vertex 35.8 0 17.8
      vertex 39.8775 0 16.3
      vertex 39.8775 0 17.8
    endloop
  endfacet
  facet normal 0 -1 0
    outer loop
      vertex 35.8 0 14.2
      vertex 39.8775 0 16.3
      vertex 35.8 0 17.8
    endloop
  endfacet
  facet normal 0 -1 -0
    outer loop
      vertex 39.8775 0 16.3
      vertex 35.8 0 14.2
      vertex 40.0775 0 16.1
    endloop
  endfacet
  facet normal 0 -1 0
    outer loop
      vertex 35.6 0 14
      vertex 40.0775 0 16.1
      vertex 35.8 0 14.2
    endloop
  endfacet
  facet normal 0 -1 0
    outer loop
      vertex 40.0775 0 16.1
      vertex 46.2023 0 14.0586
      vertex 44.1609 0 16.1
    endloop
  endfacet
  facet normal 0 -1 -0
    outer loop
      vertex 40.0775 0 16.1
      vertex 35.6 0 14
      vertex 46.2023 0 14.0586
    endloop
  endfacet
  facet normal 0 -1 -0
    outer loop
      vertex 46.2023 0 14.0586
      vertex 35.6 0 14
      vertex 46.3437 0 14
    endloop
  endfacet
  facet normal 0 -1 0
    outer loop
      vertex 50.025 0 17.8
      vertex 54.1025 0 16.3
      vertex 54.1025 0 17.8
    endloop
  endfacet
  facet normal 0 -1 0
    outer loop
      vertex 50.025 0 14.2
      vertex 54.1025 0 16.3
      vertex 50.025 0 17.8
    endloop
  endfacet
  facet normal 0 -1 -0
    outer loop
      vertex 54.1025 0 16.3
      vertex 50.025 0 14.2
      vertex 54.3025 0 16.1
    endloop
  endfacet
  facet normal 0 -1 0
    outer loop
      vertex 49.825 0 14
      vertex 54.3025 0 16.1
      vertex 50.025 0 14.2
    endloop
  endfacet
  facet normal 0 -1 0
    outer loop
      vertex 54.3025 0 16.1
      vertex 60.4273 0 14.0586
      vertex 58.3859 0 16.1
    endloop
  endfacet
  facet normal 0 -1 -0
    outer loop
      vertex 54.3025 0 16.1
      vertex 49.825 0 14
      vertex 60.4273 0 14.0586
    endloop
  endfacet
  facet normal 0 -1 -0
    outer loop
      vertex 60.4273 0 14.0586
      vertex 49.825 0 14
      vertex 60.5687 0 14
    endloop
  endfacet
  facet normal 0 -1 0
    outer loop
      vertex 64.25 0 17.8
      vertex 64.25 0 14.2
      vertex 70 0 17.8
    endloop
  endfacet
  facet normal 0 -1 0
    outer loop
      vertex 70 0 17.8
      vertex 71.5 0 21.4
      vertex 70 0 21.4
    endloop
  endfacet
  facet normal 0 -1 0
    outer loop
      vertex 71.5 0 0
      vertex 64.25 0 14.2
      vertex 64.05 0 14
    endloop
  endfacet
  facet normal 0 -1 0
    outer loop
      vertex 70 0 17.8
      vertex 71.5 0 0
      vertex 71.5 0 21.4
    endloop
  endfacet
  facet normal 0 -1 0
    outer loop
      vertex 64.25 0 14.2
      vertex 71.5 0 0
      vertex 70 0 17.8
    endloop
  endfacet
  facet normal 0 -1 0
    outer loop
      vertex 60.5687 0 14
      vertex 71.5 0 0
      vertex 64.05 0 14
    endloop
  endfacet
  facet normal -0 0 1
    outer loop
      vertex 0 94.5 17.8
      vertex 1.5 1.5 17.8
      vertex 1.5 94.5 17.8
    endloop
  endfacet
  facet normal 0 0 1
    outer loop
      vertex 1.5 1.5 17.8
      vertex 0 94.5 17.8
      vertex 0 1.5 17.8
    endloop
  endfacet
  facet normal -0 0 1
    outer loop
      vertex 1.5 96 17.8
      vertex 70 94.5 17.8
      vertex 70 96 17.8
    endloop
  endfacet
  facet normal 0 0 1
    outer loop
      vertex 70 94.5 17.8
      vertex 1.5 96 17.8
      vertex 1.5 94.5 17.8
    endloop
  endfacet
  facet normal -0 0 1
    outer loop
      vertex 1.5 1.5 17.8
      vertex 11.4275 0 17.8
      vertex 11.4275 1.5 17.8
    endloop
  endfacet
  facet normal 0 0 1
    outer loop
      vertex 11.4275 0 17.8
      vertex 1.5 1.5 17.8
      vertex 1.5 0 17.8
    endloop
  endfacet
  facet normal -0 0 1
    outer loop
      vertex 21.575 1.5 17.8
      vertex 25.6525 0 17.8
      vertex 25.6525 1.5 17.8
    endloop
  endfacet
  facet normal 0 0 1
    outer loop
      vertex 25.6525 0 17.8
      vertex 21.575 1.5 17.8
      vertex 21.575 0 17.8
    endloop
  endfacet
  facet normal -0 0 1
    outer loop
      vertex 35.8 1.5 17.8
      vertex 39.8775 0 17.8
      vertex 39.8775 1.5 17.8
    endloop
  endfacet
  facet normal 0 0 1
    outer loop
      vertex 39.8775 0 17.8
      vertex 35.8 1.5 17.8
      vertex 35.8 0 17.8
    endloop
  endfacet
  facet normal -0 0 1
    outer loop
      vertex 50.025 1.5 17.8
      vertex 54.1025 0 17.8
      vertex 54.1025 1.5 17.8
    endloop
  endfacet
  facet normal 0 0 1
    outer loop
      vertex 54.1025 0 17.8
      vertex 50.025 1.5 17.8
      vertex 50.025 0 17.8
    endloop
  endfacet
  facet normal -0 0 1
    outer loop
      vertex 64.25 1.5 17.8
      vertex 70 0 17.8
      vertex 70 1.5 17.8
    endloop
  endfacet
  facet normal 0 0 1
    outer loop
      vertex 70 0 17.8
      vertex 64.25 1.5 17.8
      vertex 64.25 0 17.8
    endloop
  endfacet
  facet normal -0 0 1
    outer loop
      vertex 1.5 94.5 0.95
      vertex 71.5 1.5 0.95
      vertex 71.5 94.5 0.95
    endloop
  endfacet
  facet normal 0 0 1
    outer loop
      vertex 71.5 1.5 0.95
      vertex 1.5 94.5 0.95
      vertex 1.5 1.5 0.95
    endloop
  endfacet
  facet normal 1 -0 0
    outer loop
      vertex 1.5 94.5 21.4
      vertex 1.5 96 17.8
      vertex 1.5 96 21.4
    endloop
  endfacet
  facet normal 1 0 0
    outer loop
      vertex 1.5 96 17.8
      vertex 1.5 94.5 21.4
      vertex 1.5 94.5 17.8
    endloop
  endfacet
  facet normal 1 -0 0
    outer loop
      vertex 1.5 1.5 17.8
      vertex 1.5 94.5 0.95
      vertex 1.5 94.5 17.8
    endloop
  endfacet
  facet normal 1 0 0
    outer loop
      vertex 1.5 94.5 0.95
      vertex 1.5 1.5 17.8
      vertex 1.5 1.5 0.95
    endloop
  endfacet
  facet normal 1 -0 0
    outer loop
      vertex 1.5 0 21.4
      vertex 1.5 1.5 17.8
      vertex 1.5 1.5 21.4
    endloop
  endfacet
  facet normal 1 0 0
    outer loop
      vertex 1.5 1.5 17.8
      vertex 1.5 0 21.4
      vertex 1.5 0 17.8
    endloop
  endfacet
  facet normal 0 -1 0
    outer loop
      vertex 0 94.5 17.8
      vertex 1.5 94.5 21.4
      vertex 0 94.5 21.4
    endloop
  endfacet
  facet normal 0 -1 -0
    outer loop
      vertex 1.5 94.5 21.4
      vertex 0 94.5 17.8
      vertex 1.5 94.5 17.8
    endloop
  endfacet
  facet normal 0 -1 0
    outer loop
      vertex 1.5 94.5 17.8
      vertex 1.5 94.5 0.95
      vertex 70 94.5 17.8
    endloop
  endfacet
  facet normal 0 -1 0
    outer loop
      vertex 70 94.5 17.8
      vertex 71.5 94.5 21.4
      vertex 70 94.5 21.4
    endloop
  endfacet
  facet normal 0 -1 0
    outer loop
      vertex 70 94.5 17.8
      vertex 71.5 94.5 0.95
      vertex 71.5 94.5 21.4
    endloop
  endfacet
  facet normal 0 -1 0
    outer loop
      vertex 71.5 94.5 0.95
      vertex 70 94.5 17.8
      vertex 1.5 94.5 0.95
    endloop
  endfacet
  facet normal -1 0 0
    outer loop
      vertex 70 94.5 17.8
      vertex 70 96 21.4
      vertex 70 96 17.8
    endloop
  endfacet
  facet normal -1 -0 0
    outer loop
      vertex 70 96 21.4
      vertex 70 94.5 17.8
      vertex 70 94.5 21.4
    endloop
  endfacet
  facet normal -1 0 0
    outer loop
      vertex 70 0 17.8
      vertex 70 1.5 21.4
      vertex 70 1.5 17.8
    endloop
  endfacet
  facet normal -1 -0 0
    outer loop
      vertex 70 1.5 21.4
      vertex 70 0 17.8
      vertex 70 0 21.4
    endloop
  endfacet
endsolid OpenSCAD_Model
