solid OpenSCAD_Model
  facet normal -0.707107 0 0.707107
    outer loop
      vertex 0 -9.78133 -4.1775
      vertex 2.09999 -13.0418 -2.07751
      vertex 2.09999 -9.78133 -2.07751
    endloop
  endfacet
  facet normal -0.707107 0 0.707107
    outer loop
      vertex 2.09999 -13.0418 -2.07751
      vertex 0 -9.78133 -4.1775
      vertex 0 -13.0418 -4.1775
    endloop
  endfacet
  facet normal -1 0 0
    outer loop
      vertex 0 -3.26044 -6.9625
      vertex 0 -9.78133 -4.1775
      vertex 0 -3.26044 -3.48125
    endloop
  endfacet
  facet normal -1 0 0
    outer loop
      vertex 0 -16.3022 -6.9625
      vertex 0 -9.78133 -4.1775
      vertex 0 -3.26044 -6.9625
    endloop
  endfacet
  facet normal -1 -0 0
    outer loop
      vertex 0 -9.78133 -4.1775
      vertex 0 -16.3022 -6.9625
      vertex 0 -13.0418 -4.1775
    endloop
  endfacet
  facet normal -1 0 0
    outer loop
      vertex 0 -16.3022 -3.48125
      vertex 0 -13.0418 -4.1775
      vertex 0 -16.3022 -6.9625
    endloop
  endfacet
  facet normal -1 0 0
    outer loop
      vertex 0 -13.0418 -4.1775
      vertex 0 -16.3022 -3.48125
      vertex 0 -13.0418 -3.48125
    endloop
  endfacet
  facet normal -1 -0 0
    outer loop
      vertex 0 -3.26044 -3.48125
      vertex 0 -9.78133 -4.1775
      vertex 0 -9.78133 -3.48125
    endloop
  endfacet
  facet normal -1 0 0
    outer loop
      vertex 0 16.3022 -6.9625
      vertex 0 9.78133 -4.1775
      vertex 0 16.3022 -3.48125
    endloop
  endfacet
  facet normal -1 0 0
    outer loop
      vertex 0 16.3022 -6.9625
      vertex 0 6.52089 -4.1775
      vertex 0 9.78133 -4.1775
    endloop
  endfacet
  facet normal -1 0 0
    outer loop
      vertex 0 0 -6.9625
      vertex 0 6.52089 -4.1775
      vertex 0 16.3022 -6.9625
    endloop
  endfacet
  facet normal -1 0 0
    outer loop
      vertex 0 0 -3.48125
      vertex 0 6.52089 -4.1775
      vertex 0 0 -6.9625
    endloop
  endfacet
  facet normal -1 0 0
    outer loop
      vertex 0 6.52089 -4.1775
      vertex 0 0 -3.48125
      vertex 0 6.52089 -3.48125
    endloop
  endfacet
  facet normal -1 -0 0
    outer loop
      vertex 0 16.3022 -3.48125
      vertex 0 9.78133 -4.1775
      vertex 0 9.78133 -3.48125
    endloop
  endfacet
  facet normal 0 1 -0
    outer loop
      vertex 2.09999 -13.0418 -2.07751
      vertex 0 -13.0418 -3.48125
      vertex 2.09999 -13.0418 -1.38126
    endloop
  endfacet
  facet normal -0 1 0
    outer loop
      vertex 0 -13.0418 -3.48125
      vertex 2.09999 -13.0418 -2.07751
      vertex 0 -13.0418 -4.1775
    endloop
  endfacet
  facet normal 1 0 0
    outer loop
      vertex 2.09999 6.52089 -1.38126
      vertex 2.09999 0 -1.38126
      vertex 2.09999 6.52089 -2.07751
    endloop
  endfacet
  facet normal 1 0 0
    outer loop
      vertex 2.09999 9.78133 -2.07751
      vertex 2.09999 16.3022 -1.38126
      vertex 2.09999 9.78133 -1.38126
    endloop
  endfacet
  facet normal 1 0 0
    outer loop
      vertex 2.09999 16.3022 -1.38126
      vertex 2.09999 9.78133 -2.07751
      vertex 2.09999 16.3022 -6.9625
    endloop
  endfacet
  facet normal 1 -0 0
    outer loop
      vertex 2.09999 6.52089 -2.07751
      vertex 2.09999 16.3022 -6.9625
      vertex 2.09999 9.78133 -2.07751
    endloop
  endfacet
  facet normal 1 0 0
    outer loop
      vertex 2.09999 0 -6.9625
      vertex 2.09999 6.52089 -2.07751
      vertex 2.09999 0 -1.38126
    endloop
  endfacet
  facet normal 1 0 0
    outer loop
      vertex 2.09999 6.52089 -2.07751
      vertex 2.09999 0 -6.9625
      vertex 2.09999 16.3022 -6.9625
    endloop
  endfacet
  facet normal 1 0 0
    outer loop
      vertex 2.09999 -13.0418 -1.38126
      vertex 2.09999 -16.3022 -1.38126
      vertex 2.09999 -13.0418 -2.07751
    endloop
  endfacet
  facet normal 1 0 0
    outer loop
      vertex 2.09999 -9.78133 -2.07751
      vertex 2.09999 -3.26044 -1.38126
      vertex 2.09999 -9.78133 -1.38126
    endloop
  endfacet
  facet normal 1 0 0
    outer loop
      vertex 2.09999 -3.26044 -1.38126
      vertex 2.09999 -9.78133 -2.07751
      vertex 2.09999 -3.26044 -6.9625
    endloop
  endfacet
  facet normal 1 0 0
    outer loop
      vertex 2.09999 -16.3022 -6.9625
      vertex 2.09999 -9.78133 -2.07751
      vertex 2.09999 -13.0418 -2.07751
    endloop
  endfacet
  facet normal 1 0 0
    outer loop
      vertex 2.09999 -16.3022 -6.9625
      vertex 2.09999 -13.0418 -2.07751
      vertex 2.09999 -16.3022 -1.38126
    endloop
  endfacet
  facet normal 1 0 0
    outer loop
      vertex 2.09999 -9.78133 -2.07751
      vertex 2.09999 -16.3022 -6.9625
      vertex 2.09999 -3.26044 -6.9625
    endloop
  endfacet
  facet normal 0 -1 0
    outer loop
      vertex 0 -9.78133 -3.48125
      vertex 2.09999 -9.78133 -2.07751
      vertex 2.09999 -9.78133 -1.38126
    endloop
  endfacet
  facet normal 0 -1 0
    outer loop
      vertex 2.09999 -9.78133 -2.07751
      vertex 0 -9.78133 -3.48125
      vertex 0 -9.78133 -4.1775
    endloop
  endfacet
  facet normal 0 1 -0
    outer loop
      vertex 2.09999 -3.26044 -6.9625
      vertex 0 -3.26044 -3.48125
      vertex 2.09999 -3.26044 -1.38126
    endloop
  endfacet
  facet normal 0 1 0
    outer loop
      vertex 0 -3.26044 -3.48125
      vertex 2.09999 -3.26044 -6.9625
      vertex 0 -3.26044 -6.9625
    endloop
  endfacet
  facet normal 0 -1 0
    outer loop
      vertex 2.09999 0 -6.9625
      vertex 0 0 -3.48125
      vertex 0 0 -6.9625
    endloop
  endfacet
  facet normal 0 -1 0
    outer loop
      vertex 0 0 -3.48125
      vertex 2.09999 0 -6.9625
      vertex 2.09999 0 -1.38126
    endloop
  endfacet
  facet normal -0.707107 0 0.707107
    outer loop
      vertex 0 9.78133 -4.1775
      vertex 2.09999 6.52089 -2.07751
      vertex 2.09999 9.78133 -2.07751
    endloop
  endfacet
  facet normal -0.707107 0 0.707107
    outer loop
      vertex 2.09999 6.52089 -2.07751
      vertex 0 9.78133 -4.1775
      vertex 0 6.52089 -4.1775
    endloop
  endfacet
  facet normal 0 1 -0
    outer loop
      vertex 2.09999 6.52089 -2.07751
      vertex 0 6.52089 -3.48125
      vertex 2.09999 6.52089 -1.38126
    endloop
  endfacet
  facet normal -0 1 0
    outer loop
      vertex 0 6.52089 -3.48125
      vertex 2.09999 6.52089 -2.07751
      vertex 0 6.52089 -4.1775
    endloop
  endfacet
  facet normal 0 -1 0
    outer loop
      vertex 0 9.78133 -3.48125
      vertex 2.09999 9.78133 -2.07751
      vertex 2.09999 9.78133 -1.38126
    endloop
  endfacet
  facet normal 0 -1 0
    outer loop
      vertex 2.09999 9.78133 -2.07751
      vertex 0 9.78133 -3.48125
      vertex 0 9.78133 -4.1775
    endloop
  endfacet
  facet normal -0.707107 0 0.707107
    outer loop
      vertex 0 9.78133 -3.48125
      vertex 2.09999 16.3022 -1.38126
      vertex 0 16.3022 -3.48125
    endloop
  endfacet
  facet normal -0.707107 0 0.707107
    outer loop
      vertex 2.09999 16.3022 -1.38126
      vertex 0 9.78133 -3.48125
      vertex 2.09999 9.78133 -1.38126
    endloop
  endfacet
  facet normal -0.707107 0 0.707107
    outer loop
      vertex 0 -16.3022 -3.48125
      vertex 2.09999 -13.0418 -1.38126
      vertex 0 -13.0418 -3.48125
    endloop
  endfacet
  facet normal -0.707107 0 0.707107
    outer loop
      vertex 2.09999 -13.0418 -1.38126
      vertex 0 -16.3022 -3.48125
      vertex 2.09999 -16.3022 -1.38126
    endloop
  endfacet
  facet normal -0.707107 0 0.707107
    outer loop
      vertex 0 0 -3.48125
      vertex 2.09999 6.52089 -1.38126
      vertex 0 6.52089 -3.48125
    endloop
  endfacet
  facet normal -0.707107 0 0.707107
    outer loop
      vertex 2.09999 6.52089 -1.38126
      vertex 0 0 -3.48125
      vertex 2.09999 0 -1.38126
    endloop
  endfacet
  facet normal -0.707107 0 0.707107
    outer loop
      vertex 0 -9.78133 -3.48125
      vertex 2.09999 -3.26044 -1.38126
      vertex 0 -3.26044 -3.48125
    endloop
  endfacet
  facet normal -0.707107 0 0.707107
    outer loop
      vertex 2.09999 -3.26044 -1.38126
      vertex 0 -9.78133 -3.48125
      vertex 2.09999 -9.78133 -1.38126
    endloop
  endfacet
  facet normal 0 -1 0
    outer loop
      vertex 2.09999 -16.3022 -6.9625
      vertex 0 -16.3022 -3.48125
      vertex 0 -16.3022 -6.9625
    endloop
  endfacet
  facet normal 0 -1 0
    outer loop
      vertex 0 -16.3022 -3.48125
      vertex 2.09999 -16.3022 -6.9625
      vertex 2.09999 -16.3022 -1.38126
    endloop
  endfacet
  facet normal 0 1 -0
    outer loop
      vertex 2.09999 16.3022 -6.9625
      vertex 0 16.3022 -3.48125
      vertex 2.09999 16.3022 -1.38126
    endloop
  endfacet
  facet normal 0 1 0
    outer loop
      vertex 0 16.3022 -3.48125
      vertex 2.09999 16.3022 -6.9625
      vertex 0 16.3022 -6.9625
    endloop
  endfacet
  facet normal 0 0 -1
    outer loop
      vertex 0 -16.3022 -6.9625
      vertex 2.09999 -3.26044 -6.9625
      vertex 2.09999 -16.3022 -6.9625
    endloop
  endfacet
  facet normal -0 0 -1
    outer loop
      vertex 2.09999 -3.26044 -6.9625
      vertex 0 -16.3022 -6.9625
      vertex 0 -3.26044 -6.9625
    endloop
  endfacet
  facet normal 0 0 -1
    outer loop
      vertex 0 0 -6.9625
      vertex 2.09999 16.3022 -6.9625
      vertex 2.09999 0 -6.9625
    endloop
  endfacet
  facet normal -0 0 -1
    outer loop
      vertex 2.09999 16.3022 -6.9625
      vertex 0 0 -6.9625
      vertex 0 16.3022 -6.9625
    endloop
  endfacet
  facet normal 0 1 -0
    outer loop
      vertex 3.1 10.6181 2.585
      vertex 2.6 10.6181 2.785
      vertex 3.1 10.6181 2.785
    endloop
  endfacet
  facet normal 0 1 0
    outer loop
      vertex 2.6 10.6181 2.785
      vertex 3.1 10.6181 2.585
      vertex 2.6 10.6181 2.585
    endloop
  endfacet
  facet normal -0 0 1
    outer loop
      vertex 2.6 5.18407 2.785
      vertex 3.1 -3.01045 2.785
      vertex 3.1 5.18407 2.785
    endloop
  endfacet
  facet normal 0 0 1
    outer loop
      vertex 3.1 -3.01045 2.785
      vertex 2.6 5.18407 2.785
      vertex 2.6 -3.01045 2.785
    endloop
  endfacet
  facet normal -0 0 1
    outer loop
      vertex 2.6 10.6181 2.785
      vertex 3.1 5.68407 2.785
      vertex 3.1 10.6181 2.785
    endloop
  endfacet
  facet normal 0 0 1
    outer loop
      vertex 3.1 5.68407 2.785
      vertex 2.6 10.6181 2.785
      vertex 2.6 5.68407 2.785
    endloop
  endfacet
  facet normal 0 0 1
    outer loop
      vertex 3.1 10.6181 2.785
      vertex 3.6 16.3022 2.785
      vertex 3.1 11.1181 2.785
    endloop
  endfacet
  facet normal 0 0 1
    outer loop
      vertex 3.6 16.3022 2.785
      vertex 2.6 11.1181 2.785
      vertex 3.1 11.1181 2.785
    endloop
  endfacet
  facet normal 0 0 1
    outer loop
      vertex 2.1 16.3022 2.785
      vertex 2.6 10.6181 2.785
      vertex 2.6 11.1181 2.785
    endloop
  endfacet
  facet normal 0 0 1
    outer loop
      vertex 2.6 10.6181 2.785
      vertex 2.1 16.3022 2.785
      vertex 2.6 5.68407 2.785
    endloop
  endfacet
  facet normal 0 0 1
    outer loop
      vertex 2.6 5.68407 2.785
      vertex 2.1 16.3022 2.785
      vertex 2.6 5.18407 2.785
    endloop
  endfacet
  facet normal 0 0 1
    outer loop
      vertex 2.6 5.18407 2.785
      vertex 2.1 -6.27089 2.785
      vertex 2.6 -3.01045 2.785
    endloop
  endfacet
  facet normal 0 0 1
    outer loop
      vertex 2.6 5.18407 2.785
      vertex 2.1 16.3022 2.785
      vertex 2.1 -6.27089 2.785
    endloop
  endfacet
  facet normal -0 0 1
    outer loop
      vertex 2.1 16.3022 2.785
      vertex 2.6 11.1181 2.785
      vertex 3.6 16.3022 2.785
    endloop
  endfacet
  facet normal 0 0 1
    outer loop
      vertex 3.1 5.68407 2.785
      vertex 3.6 16.3022 2.785
      vertex 3.1 10.6181 2.785
    endloop
  endfacet
  facet normal 0 0 1
    outer loop
      vertex 3.6 16.3022 2.785
      vertex 3.1 5.68407 2.785
      vertex 3.6 -6.27089 2.785
    endloop
  endfacet
  facet normal -0 0 1
    outer loop
      vertex 3.1 5.18407 2.785
      vertex 3.6 -6.27089 2.785
      vertex 3.1 5.68407 2.785
    endloop
  endfacet
  facet normal -0 0 1
    outer loop
      vertex 3.1 -3.01045 2.785
      vertex 3.6 -6.27089 2.785
      vertex 3.1 5.18407 2.785
    endloop
  endfacet
  facet normal -0 0 1
    outer loop
      vertex 3.1 -3.51045 2.785
      vertex 3.6 -6.27089 2.785
      vertex 3.1 -3.01045 2.785
    endloop
  endfacet
  facet normal -0 0 1
    outer loop
      vertex 2.6 -3.51045 2.785
      vertex 3.6 -6.27089 2.785
      vertex 3.1 -3.51045 2.785
    endloop
  endfacet
  facet normal 0 0 1
    outer loop
      vertex 2.6 -3.51045 2.785
      vertex 2.1 -6.27089 2.785
      vertex 3.6 -6.27089 2.785
    endloop
  endfacet
  facet normal 0 0 1
    outer loop
      vertex 2.6 -3.01045 2.785
      vertex 2.1 -6.27089 2.785
      vertex 2.6 -3.51045 2.785
    endloop
  endfacet
  facet normal -0 0 1
    outer loop
      vertex 2.6 -10.0313 2.785
      vertex 3.1 -12.7918 2.785
      vertex 3.1 -10.0313 2.785
    endloop
  endfacet
  facet normal 0 0 1
    outer loop
      vertex 3.1 -12.7918 2.785
      vertex 2.6 -10.0313 2.785
      vertex 2.6 -12.7918 2.785
    endloop
  endfacet
  facet normal 0 0 1
    outer loop
      vertex 3.1 -10.0313 2.785
      vertex 3.6 -6.77089 2.785
      vertex 3.1 -9.53133 2.785
    endloop
  endfacet
  facet normal 0 0 1
    outer loop
      vertex 3.6 -6.77089 2.785
      vertex 2.6 -9.53133 2.785
      vertex 3.1 -9.53133 2.785
    endloop
  endfacet
  facet normal 0 0 1
    outer loop
      vertex 2.1 -6.77089 2.785
      vertex 2.6 -10.0313 2.785
      vertex 2.6 -9.53133 2.785
    endloop
  endfacet
  facet normal 0 0 1
    outer loop
      vertex 2.6 -10.0313 2.785
      vertex 2.1 -6.77089 2.785
      vertex 2.6 -12.7918 2.785
    endloop
  endfacet
  facet normal 0 0 1
    outer loop
      vertex 2.1 -16.3022 2.785
      vertex 2.6 -12.7918 2.785
      vertex 2.1 -6.77089 2.785
    endloop
  endfacet
  facet normal -0 0 1
    outer loop
      vertex 2.1 -6.77089 2.785
      vertex 2.6 -9.53133 2.785
      vertex 3.6 -6.77089 2.785
    endloop
  endfacet
  facet normal 0 0 1
    outer loop
      vertex 3.1 -12.7918 2.785
      vertex 3.6 -6.77089 2.785
      vertex 3.1 -10.0313 2.785
    endloop
  endfacet
  facet normal 0 0 1
    outer loop
      vertex 3.6 -6.77089 2.785
      vertex 3.1 -12.7918 2.785
      vertex 3.6 -16.3022 2.785
    endloop
  endfacet
  facet normal -0 0 1
    outer loop
      vertex 3.1 -13.2918 2.785
      vertex 3.6 -16.3022 2.785
      vertex 3.1 -12.7918 2.785
    endloop
  endfacet
  facet normal -0 0 1
    outer loop
      vertex 2.6 -13.2918 2.785
      vertex 3.6 -16.3022 2.785
      vertex 3.1 -13.2918 2.785
    endloop
  endfacet
  facet normal 0 0 1
    outer loop
      vertex 2.6 -13.2918 2.785
      vertex 2.1 -16.3022 2.785
      vertex 3.6 -16.3022 2.785
    endloop
  endfacet
  facet normal 0 0 1
    outer loop
      vertex 2.6 -12.7918 2.785
      vertex 2.1 -16.3022 2.785
      vertex 2.6 -13.2918 2.785
    endloop
  endfacet
  facet normal -0 0 1
    outer loop
      vertex 2.6 11.1181 2.585
      vertex 3.1 10.6181 2.585
      vertex 3.1 11.1181 2.585
    endloop
  endfacet
  facet normal 0 0 1
    outer loop
      vertex 3.1 10.6181 2.585
      vertex 2.6 11.1181 2.585
      vertex 2.6 10.6181 2.585
    endloop
  endfacet
  facet normal 0 -1 0
    outer loop
      vertex 2.6 11.1181 2.585
      vertex 3.1 11.1181 2.785
      vertex 2.6 11.1181 2.785
    endloop
  endfacet
  facet normal 0 -1 -0
    outer loop
      vertex 3.1 11.1181 2.785
      vertex 2.6 11.1181 2.585
      vertex 3.1 11.1181 2.585
    endloop
  endfacet
  facet normal -1 0 0
    outer loop
      vertex 3.1 10.6181 2.585
      vertex 3.1 11.1181 2.785
      vertex 3.1 11.1181 2.585
    endloop
  endfacet
  facet normal -1 -0 0
    outer loop
      vertex 3.1 11.1181 2.785
      vertex 3.1 10.6181 2.585
      vertex 3.1 10.6181 2.785
    endloop
  endfacet
  facet normal 1 -0 0
    outer loop
      vertex 2.6 10.6181 2.785
      vertex 2.6 11.1181 2.585
      vertex 2.6 11.1181 2.785
    endloop
  endfacet
  facet normal 1 0 0
    outer loop
      vertex 2.6 11.1181 2.585
      vertex 2.6 10.6181 2.785
      vertex 2.6 10.6181 2.585
    endloop
  endfacet
  facet normal 0 1 -0
    outer loop
      vertex 3.1 5.18407 2.585
      vertex 2.6 5.18407 2.785
      vertex 3.1 5.18407 2.785
    endloop
  endfacet
  facet normal 0 1 0
    outer loop
      vertex 2.6 5.18407 2.785
      vertex 3.1 5.18407 2.585
      vertex 2.6 5.18407 2.585
    endloop
  endfacet
  facet normal -0 0 1
    outer loop
      vertex 2.6 5.68407 2.585
      vertex 3.1 5.18407 2.585
      vertex 3.1 5.68407 2.585
    endloop
  endfacet
  facet normal 0 0 1
    outer loop
      vertex 3.1 5.18407 2.585
      vertex 2.6 5.68407 2.585
      vertex 2.6 5.18407 2.585
    endloop
  endfacet
  facet normal 0 -1 0
    outer loop
      vertex 2.6 5.68407 2.585
      vertex 3.1 5.68407 2.785
      vertex 2.6 5.68407 2.785
    endloop
  endfacet
  facet normal 0 -1 -0
    outer loop
      vertex 3.1 5.68407 2.785
      vertex 2.6 5.68407 2.585
      vertex 3.1 5.68407 2.585
    endloop
  endfacet
  facet normal -1 0 0
    outer loop
      vertex 3.1 5.18407 2.585
      vertex 3.1 5.68407 2.785
      vertex 3.1 5.68407 2.585
    endloop
  endfacet
  facet normal -1 -0 0
    outer loop
      vertex 3.1 5.68407 2.785
      vertex 3.1 5.18407 2.585
      vertex 3.1 5.18407 2.785
    endloop
  endfacet
  facet normal 1 -0 0
    outer loop
      vertex 2.6 5.18407 2.785
      vertex 2.6 5.68407 2.585
      vertex 2.6 5.68407 2.785
    endloop
  endfacet
  facet normal 1 0 0
    outer loop
      vertex 2.6 5.68407 2.585
      vertex 2.6 5.18407 2.785
      vertex 2.6 5.18407 2.585
    endloop
  endfacet
  facet normal 0 1 -0
    outer loop
      vertex 3.1 -3.51045 2.585
      vertex 2.6 -3.51045 2.785
      vertex 3.1 -3.51045 2.785
    endloop
  endfacet
  facet normal 0 1 0
    outer loop
      vertex 2.6 -3.51045 2.785
      vertex 3.1 -3.51045 2.585
      vertex 2.6 -3.51045 2.585
    endloop
  endfacet
  facet normal -0 0 1
    outer loop
      vertex 2.6 -3.01045 2.585
      vertex 3.1 -3.51045 2.585
      vertex 3.1 -3.01045 2.585
    endloop
  endfacet
  facet normal 0 0 1
    outer loop
      vertex 3.1 -3.51045 2.585
      vertex 2.6 -3.01045 2.585
      vertex 2.6 -3.51045 2.585
    endloop
  endfacet
  facet normal 0 -1 0
    outer loop
      vertex 2.6 -3.01045 2.585
      vertex 3.1 -3.01045 2.785
      vertex 2.6 -3.01045 2.785
    endloop
  endfacet
  facet normal 0 -1 -0
    outer loop
      vertex 3.1 -3.01045 2.785
      vertex 2.6 -3.01045 2.585
      vertex 3.1 -3.01045 2.585
    endloop
  endfacet
  facet normal -1 0 0
    outer loop
      vertex 3.1 -3.51045 2.585
      vertex 3.1 -3.01045 2.785
      vertex 3.1 -3.01045 2.585
    endloop
  endfacet
  facet normal -1 -0 0
    outer loop
      vertex 3.1 -3.01045 2.785
      vertex 3.1 -3.51045 2.585
      vertex 3.1 -3.51045 2.785
    endloop
  endfacet
  facet normal 1 -0 0
    outer loop
      vertex 2.6 -3.51045 2.785
      vertex 2.6 -3.01045 2.585
      vertex 2.6 -3.01045 2.785
    endloop
  endfacet
  facet normal 1 0 0
    outer loop
      vertex 2.6 -3.01045 2.585
      vertex 2.6 -3.51045 2.785
      vertex 2.6 -3.51045 2.585
    endloop
  endfacet
  facet normal 0 1 -0
    outer loop
      vertex 3.6 -6.77089 2.585
      vertex 2.1 -6.77089 2.785
      vertex 3.6 -6.77089 2.785
    endloop
  endfacet
  facet normal 0 1 0
    outer loop
      vertex 2.1 -6.77089 2.785
      vertex 3.6 -6.77089 2.585
      vertex 2.1 -6.77089 2.585
    endloop
  endfacet
  facet normal -0 0 1
    outer loop
      vertex 2.1 -6.27089 2.585
      vertex 3.6 -6.77089 2.585
      vertex 3.6 -6.27089 2.585
    endloop
  endfacet
  facet normal 0 0 1
    outer loop
      vertex 3.6 -6.77089 2.585
      vertex 2.1 -6.27089 2.585
      vertex 2.1 -6.77089 2.585
    endloop
  endfacet
  facet normal 0 -1 0
    outer loop
      vertex 2.1 -6.27089 2.585
      vertex 3.6 -6.27089 2.785
      vertex 2.1 -6.27089 2.785
    endloop
  endfacet
  facet normal 0 -1 -0
    outer loop
      vertex 3.6 -6.27089 2.785
      vertex 2.1 -6.27089 2.585
      vertex 3.6 -6.27089 2.585
    endloop
  endfacet
  facet normal 1 0 0
    outer loop
      vertex 3.6 -6.77089 2.785
      vertex 3.6 -16.3022 2.785
      vertex 3.6 -6.77089 2.585
    endloop
  endfacet
  facet normal 1 0 0
    outer loop
      vertex 3.6 3.984 -1.4225
      vertex 3.6 16.3022 2.785
      vertex 3.6 3.984 1.4225
    endloop
  endfacet
  facet normal 1 -0 0
    outer loop
      vertex 3.6 -6.27089 2.785
      vertex 3.6 3.984 1.4225
      vertex 3.6 16.3022 2.785
    endloop
  endfacet
  facet normal 1 -0 0
    outer loop
      vertex 3.6 -6.27089 2.585
      vertex 3.6 -3.984 1.4225
      vertex 3.6 -6.27089 2.785
    endloop
  endfacet
  facet normal 1 0 0
    outer loop
      vertex 3.6 3.984 1.4225
      vertex 3.6 -6.27089 2.785
      vertex 3.6 -3.984 1.4225
    endloop
  endfacet
  facet normal 1 0 0
    outer loop
      vertex 3.6 16.3022 2.785
      vertex 3.6 3.984 -1.4225
      vertex 3.6 16.3022 -6.9625
    endloop
  endfacet
  facet normal 1 -0 0
    outer loop
      vertex 3.6 -3.984 -1.4225
      vertex 3.6 16.3022 -6.9625
      vertex 3.6 3.984 -1.4225
    endloop
  endfacet
  facet normal 1 0 0
    outer loop
      vertex 3.6 -3.984 1.4225
      vertex 3.6 -6.27089 2.585
      vertex 3.6 -3.984 -1.4225
    endloop
  endfacet
  facet normal 1 -0 0
    outer loop
      vertex 3.6 -6.77089 2.585
      vertex 3.6 -3.984 -1.4225
      vertex 3.6 -6.27089 2.585
    endloop
  endfacet
  facet normal 1 0 0
    outer loop
      vertex 3.6 -16.3022 -6.9625
      vertex 3.6 -6.77089 2.585
      vertex 3.6 -16.3022 2.785
    endloop
  endfacet
  facet normal 1 0 0
    outer loop
      vertex 3.6 -3.984 -1.4225
      vertex 3.6 -16.3022 -6.9625
      vertex 3.6 16.3022 -6.9625
    endloop
  endfacet
  facet normal 1 0 0
    outer loop
      vertex 3.6 -6.77089 2.585
      vertex 3.6 -16.3022 -6.9625
      vertex 3.6 -3.984 -1.4225
    endloop
  endfacet
  facet normal -1 0 0
    outer loop
      vertex 2.1 16.3022 -6.9625
      vertex 2.1 -6.27089 2.585
      vertex 2.1 16.3022 2.785
    endloop
  endfacet
  facet normal -1 0 0
    outer loop
      vertex 2.1 -16.3022 -6.9625
      vertex 2.1 -6.27089 2.585
      vertex 2.1 16.3022 -6.9625
    endloop
  endfacet
  facet normal -1 -0 0
    outer loop
      vertex 2.1 -6.27089 2.585
      vertex 2.1 -16.3022 -6.9625
      vertex 2.1 -6.77089 2.585
    endloop
  endfacet
  facet normal -1 0 0
    outer loop
      vertex 2.1 -16.3022 2.785
      vertex 2.1 -6.77089 2.585
      vertex 2.1 -16.3022 -6.9625
    endloop
  endfacet
  facet normal -1 0 0
    outer loop
      vertex 2.1 -6.77089 2.585
      vertex 2.1 -16.3022 2.785
      vertex 2.1 -6.77089 2.785
    endloop
  endfacet
  facet normal -1 -0 0
    outer loop
      vertex 2.1 16.3022 2.785
      vertex 2.1 -6.27089 2.585
      vertex 2.1 -6.27089 2.785
    endloop
  endfacet
  facet normal 0 1 -0
    outer loop
      vertex 3.1 -10.0313 2.585
      vertex 2.6 -10.0313 2.785
      vertex 3.1 -10.0313 2.785
    endloop
  endfacet
  facet normal 0 1 0
    outer loop
      vertex 2.6 -10.0313 2.785
      vertex 3.1 -10.0313 2.585
      vertex 2.6 -10.0313 2.585
    endloop
  endfacet
  facet normal -0 0 1
    outer loop
      vertex 2.6 -9.53133 2.585
      vertex 3.1 -10.0313 2.585
      vertex 3.1 -9.53133 2.585
    endloop
  endfacet
  facet normal 0 0 1
    outer loop
      vertex 3.1 -10.0313 2.585
      vertex 2.6 -9.53133 2.585
      vertex 2.6 -10.0313 2.585
    endloop
  endfacet
  facet normal 0 -1 0
    outer loop
      vertex 2.6 -9.53133 2.585
      vertex 3.1 -9.53133 2.785
      vertex 2.6 -9.53133 2.785
    endloop
  endfacet
  facet normal 0 -1 -0
    outer loop
      vertex 3.1 -9.53133 2.785
      vertex 2.6 -9.53133 2.585
      vertex 3.1 -9.53133 2.585
    endloop
  endfacet
  facet normal -1 0 0
    outer loop
      vertex 3.1 -10.0313 2.585
      vertex 3.1 -9.53133 2.785
      vertex 3.1 -9.53133 2.585
    endloop
  endfacet
  facet normal -1 -0 0
    outer loop
      vertex 3.1 -9.53133 2.785
      vertex 3.1 -10.0313 2.585
      vertex 3.1 -10.0313 2.785
    endloop
  endfacet
  facet normal 1 -0 0
    outer loop
      vertex 2.6 -10.0313 2.785
      vertex 2.6 -9.53133 2.585
      vertex 2.6 -9.53133 2.785
    endloop
  endfacet
  facet normal 1 0 0
    outer loop
      vertex 2.6 -9.53133 2.585
      vertex 2.6 -10.0313 2.785
      vertex 2.6 -10.0313 2.585
    endloop
  endfacet
  facet normal 0 1 -0
    outer loop
      vertex 3.1 -13.2918 2.585
      vertex 2.6 -13.2918 2.785
      vertex 3.1 -13.2918 2.785
    endloop
  endfacet
  facet normal 0 1 0
    outer loop
      vertex 2.6 -13.2918 2.785
      vertex 3.1 -13.2918 2.585
      vertex 2.6 -13.2918 2.585
    endloop
  endfacet
  facet normal -0 0 1
    outer loop
      vertex 2.6 -12.7918 2.585
      vertex 3.1 -13.2918 2.585
      vertex 3.1 -12.7918 2.585
    endloop
  endfacet
  facet normal 0 0 1
    outer loop
      vertex 3.1 -13.2918 2.585
      vertex 2.6 -12.7918 2.585
      vertex 2.6 -13.2918 2.585
    endloop
  endfacet
  facet normal 0 -1 0
    outer loop
      vertex 2.6 -12.7918 2.585
      vertex 3.1 -12.7918 2.785
      vertex 2.6 -12.7918 2.785
    endloop
  endfacet
  facet normal 0 -1 -0
    outer loop
      vertex 3.1 -12.7918 2.785
      vertex 2.6 -12.7918 2.585
      vertex 3.1 -12.7918 2.585
    endloop
  endfacet
  facet normal -1 0 0
    outer loop
      vertex 3.1 -13.2918 2.585
      vertex 3.1 -12.7918 2.785
      vertex 3.1 -12.7918 2.585
    endloop
  endfacet
  facet normal -1 -0 0
    outer loop
      vertex 3.1 -12.7918 2.785
      vertex 3.1 -13.2918 2.585
      vertex 3.1 -13.2918 2.785
    endloop
  endfacet
  facet normal 1 -0 0
    outer loop
      vertex 2.6 -13.2918 2.785
      vertex 2.6 -12.7918 2.585
      vertex 2.6 -12.7918 2.785
    endloop
  endfacet
  facet normal 1 0 0
    outer loop
      vertex 2.6 -12.7918 2.585
      vertex 2.6 -13.2918 2.785
      vertex 2.6 -13.2918 2.585
    endloop
  endfacet
  facet normal 0 0 -1
    outer loop
      vertex 2.1 -16.3022 -6.9625
      vertex 3.6 16.3022 -6.9625
      vertex 3.6 -16.3022 -6.9625
    endloop
  endfacet
  facet normal -0 0 -1
    outer loop
      vertex 3.6 16.3022 -6.9625
      vertex 2.1 -16.3022 -6.9625
      vertex 2.1 16.3022 -6.9625
    endloop
  endfacet
  facet normal 0 1 -0
    outer loop
      vertex 3.6 16.3022 -6.9625
      vertex 2.1 16.3022 2.785
      vertex 3.6 16.3022 2.785
    endloop
  endfacet
  facet normal 0 1 0
    outer loop
      vertex 2.1 16.3022 2.785
      vertex 3.6 16.3022 -6.9625
      vertex 2.1 16.3022 -6.9625
    endloop
  endfacet
  facet normal 0 -1 0
    outer loop
      vertex 2.1 -16.3022 -6.9625
      vertex 3.6 -16.3022 2.785
      vertex 2.1 -16.3022 2.785
    endloop
  endfacet
  facet normal 0 -1 -0
    outer loop
      vertex 3.6 -16.3022 2.785
      vertex 2.1 -16.3022 -6.9625
      vertex 3.6 -16.3022 -6.9625
    endloop
  endfacet
  facet normal 0 0 -1
    outer loop
      vertex 6.5 20.4929 -6.9625
      vertex 5.3 21.1929 -6.9625
      vertex 6.5 21.8929 -6.9625
    endloop
  endfacet
  facet normal 0 0 -1
    outer loop
      vertex 6.5 -21.8929 -6.9625
      vertex 5.3 -21.1929 -6.9625
      vertex 6.5 -20.4929 -6.9625
    endloop
  endfacet
  facet normal 0 0 -1
    outer loop
      vertex 6.5 -21.8929 -6.9625
      vertex 7.7 -33.328 -6.9625
      vertex 6.5 -33.328 -6.9625
    endloop
  endfacet
  facet normal 0 0 -1
    outer loop
      vertex 6.5 -20.4929 -6.9625
      vertex 7.7 -33.328 -6.9625
      vertex 6.5 -21.8929 -6.9625
    endloop
  endfacet
  facet normal 0 0 -1
    outer loop
      vertex 7.7 -33.328 -6.9625
      vertex 6.5 -20.4929 -6.9625
      vertex 7.7 33.328 -6.9625
    endloop
  endfacet
  facet normal 0 0 -1
    outer loop
      vertex 6.5 20.4929 -6.9625
      vertex 7.7 33.328 -6.9625
      vertex 6.5 -20.4929 -6.9625
    endloop
  endfacet
  facet normal 0 0 -1
    outer loop
      vertex 6.5 21.8929 -6.9625
      vertex 7.7 33.328 -6.9625
      vertex 6.5 20.4929 -6.9625
    endloop
  endfacet
  facet normal -0 0 -1
    outer loop
      vertex 7.7 33.328 -6.9625
      vertex 6.5 21.8929 -6.9625
      vertex 6.5 33.328 -6.9625
    endloop
  endfacet
  facet normal 1 -0 0
    outer loop
      vertex 7.7 -33.328 6.9625
      vertex 7.7 33.328 -6.9625
      vertex 7.7 33.328 6.9625
    endloop
  endfacet
  facet normal 1 0 0
    outer loop
      vertex 7.7 33.328 -6.9625
      vertex 7.7 -33.328 6.9625
      vertex 7.7 -33.328 -6.9625
    endloop
  endfacet
  facet normal -1 0 0
    outer loop
      vertex 6.5 21.8929 -6.9625
      vertex 6.5 33.328 6.9625
      vertex 6.5 33.328 -6.9625
    endloop
  endfacet
  facet normal -1 -0 0
    outer loop
      vertex 6.5 33.328 6.9625
      vertex 6.5 21.8929 -6.9625
      vertex 6.5 21.8929 6.9625
    endloop
  endfacet
  facet normal -1 0 0
    outer loop
      vertex 6.5 -33.328 -6.9625
      vertex 6.5 -21.8929 6.9625
      vertex 6.5 -21.8929 -6.9625
    endloop
  endfacet
  facet normal -1 -0 0
    outer loop
      vertex 6.5 -21.8929 6.9625
      vertex 6.5 -33.328 -6.9625
      vertex 6.5 -33.328 6.9625
    endloop
  endfacet
  facet normal -1 0 0
    outer loop
      vertex 6.5 -20.4929 -6.9625
      vertex 6.5 20.4929 6.9625
      vertex 6.5 20.4929 -6.9625
    endloop
  endfacet
  facet normal -1 -0 0
    outer loop
      vertex 6.5 20.4929 6.9625
      vertex 6.5 -20.4929 -6.9625
      vertex 6.5 -20.4929 6.9625
    endloop
  endfacet
  facet normal 0 0 1
    outer loop
      vertex 6.5 -20.4929 6.9625
      vertex 5.3 -21.1929 6.9625
      vertex 6.5 -21.8929 6.9625
    endloop
  endfacet
  facet normal 0 0 1
    outer loop
      vertex 6.5 21.8929 6.9625
      vertex 5.3 21.1929 6.9625
      vertex 6.5 20.4929 6.9625
    endloop
  endfacet
  facet normal 0 0 1
    outer loop
      vertex 6.5 21.8929 6.9625
      vertex 7.7 33.328 6.9625
      vertex 6.5 33.328 6.9625
    endloop
  endfacet
  facet normal 0 0 1
    outer loop
      vertex 6.5 20.4929 6.9625
      vertex 7.7 33.328 6.9625
      vertex 6.5 21.8929 6.9625
    endloop
  endfacet
  facet normal 0 0 1
    outer loop
      vertex 7.7 33.328 6.9625
      vertex 6.5 20.4929 6.9625
      vertex 7.7 -33.328 6.9625
    endloop
  endfacet
  facet normal -0 0 1
    outer loop
      vertex 6.5 -20.4929 6.9625
      vertex 7.7 -33.328 6.9625
      vertex 6.5 20.4929 6.9625
    endloop
  endfacet
  facet normal -0 0 1
    outer loop
      vertex 6.5 -21.8929 6.9625
      vertex 7.7 -33.328 6.9625
      vertex 6.5 -20.4929 6.9625
    endloop
  endfacet
  facet normal 0 0 1
    outer loop
      vertex 7.7 -33.328 6.9625
      vertex 6.5 -21.8929 6.9625
      vertex 6.5 -33.328 6.9625
    endloop
  endfacet
  facet normal 0 1 -0
    outer loop
      vertex 7.7 33.328 -6.9625
      vertex 6.5 33.328 6.9625
      vertex 7.7 33.328 6.9625
    endloop
  endfacet
  facet normal 0 1 0
    outer loop
      vertex 6.5 33.328 6.9625
      vertex 7.7 33.328 -6.9625
      vertex 6.5 33.328 -6.9625
    endloop
  endfacet
  facet normal 0 -1 0
    outer loop
      vertex 6.5 -33.328 -6.9625
      vertex 7.7 -33.328 6.9625
      vertex 6.5 -33.328 6.9625
    endloop
  endfacet
  facet normal 0 -1 -0
    outer loop
      vertex 7.7 -33.328 6.9625
      vertex 6.5 -33.328 -6.9625
      vertex 7.7 -33.328 -6.9625
    endloop
  endfacet
  facet normal -0.503871 -0.863779 0
    outer loop
      vertex 5.3 -21.1929 -6.9625
      vertex 6.5 -21.8929 6.9625
      vertex 5.3 -21.1929 6.9625
    endloop
  endfacet
  facet normal -0.503871 -0.863779 -0
    outer loop
      vertex 6.5 -21.8929 6.9625
      vertex 5.3 -21.1929 -6.9625
      vertex 6.5 -21.8929 -6.9625
    endloop
  endfacet
  facet normal -0.503871 0.863779 0
    outer loop
      vertex 6.5 -20.4929 -6.9625
      vertex 5.3 -21.1929 6.9625
      vertex 6.5 -20.4929 6.9625
    endloop
  endfacet
  facet normal -0.503871 0.863779 0
    outer loop
      vertex 5.3 -21.1929 6.9625
      vertex 6.5 -20.4929 -6.9625
      vertex 5.3 -21.1929 -6.9625
    endloop
  endfacet
  facet normal -0.503871 -0.863779 0
    outer loop
      vertex 5.3 21.1929 -6.9625
      vertex 6.5 20.4929 6.9625
      vertex 5.3 21.1929 6.9625
    endloop
  endfacet
  facet normal -0.503871 -0.863779 -0
    outer loop
      vertex 6.5 20.4929 6.9625
      vertex 5.3 21.1929 -6.9625
      vertex 6.5 20.4929 -6.9625
    endloop
  endfacet
  facet normal -0.503871 0.863779 0
    outer loop
      vertex 6.5 21.8929 -6.9625
      vertex 5.3 21.1929 6.9625
      vertex 6.5 21.8929 6.9625
    endloop
  endfacet
  facet normal -0.503871 0.863779 0
    outer loop
      vertex 5.3 21.1929 6.9625
      vertex 6.5 21.8929 -6.9625
      vertex 5.3 21.1929 -6.9625
    endloop
  endfacet
  facet normal 0 0 -1
    outer loop
      vertex 9.2 -4.166 -6.9625
      vertex 8.9 -0.2 -6.9625
      vertex 9.2 -0.2 -6.9625
    endloop
  endfacet
  facet normal -0 0 -1
    outer loop
      vertex 8.9 -0.2 -6.9625
      vertex 7.7 -4.166 -6.9625
      vertex 8.9 0.2 -6.9625
    endloop
  endfacet
  facet normal 0 0 -1
    outer loop
      vertex 7.7 -4.166 -6.9625
      vertex 8.9 -0.2 -6.9625
      vertex 9.2 -4.166 -6.9625
    endloop
  endfacet
  facet normal 0 0 -1
    outer loop
      vertex 8.9 0.2 -6.9625
      vertex 9.2 4.166 -6.9625
      vertex 9.2 0.2 -6.9625
    endloop
  endfacet
  facet normal 0 0 -1
    outer loop
      vertex 7.7 4.166 -6.9625
      vertex 8.9 0.2 -6.9625
      vertex 7.7 -4.166 -6.9625
    endloop
  endfacet
  facet normal 0 0 -1
    outer loop
      vertex 8.9 0.2 -6.9625
      vertex 7.7 4.166 -6.9625
      vertex 9.2 4.166 -6.9625
    endloop
  endfacet
  facet normal 1 -0 0
    outer loop
      vertex 9.2 0.2 6.9625
      vertex 9.2 4.166 -6.9625
      vertex 9.2 4.166 6.9625
    endloop
  endfacet
  facet normal 1 0 0
    outer loop
      vertex 9.2 4.166 -6.9625
      vertex 9.2 0.2 6.9625
      vertex 9.2 0.2 -6.9625
    endloop
  endfacet
  facet normal 1 -0 0
    outer loop
      vertex 9.2 -4.166 6.9625
      vertex 9.2 -0.2 -6.9625
      vertex 9.2 -0.2 6.9625
    endloop
  endfacet
  facet normal 1 0 0
    outer loop
      vertex 9.2 -0.2 -6.9625
      vertex 9.2 -4.166 6.9625
      vertex 9.2 -4.166 -6.9625
    endloop
  endfacet
  facet normal -1 0 0
    outer loop
      vertex 7.7 -4.166 -6.9625
      vertex 7.7 4.166 6.9625
      vertex 7.7 4.166 -6.9625
    endloop
  endfacet
  facet normal -1 -0 0
    outer loop
      vertex 7.7 4.166 6.9625
      vertex 7.7 -4.166 -6.9625
      vertex 7.7 -4.166 6.9625
    endloop
  endfacet
  facet normal 0 0 1
    outer loop
      vertex 9.2 4.166 6.9625
      vertex 8.9 0.2 6.9625
      vertex 9.2 0.2 6.9625
    endloop
  endfacet
  facet normal 0 0 1
    outer loop
      vertex 8.9 0.2 6.9625
      vertex 7.7 4.166 6.9625
      vertex 8.9 -0.2 6.9625
    endloop
  endfacet
  facet normal -0 0 1
    outer loop
      vertex 7.7 4.166 6.9625
      vertex 8.9 0.2 6.9625
      vertex 9.2 4.166 6.9625
    endloop
  endfacet
  facet normal -0 0 1
    outer loop
      vertex 8.9 -0.2 6.9625
      vertex 9.2 -4.166 6.9625
      vertex 9.2 -0.2 6.9625
    endloop
  endfacet
  facet normal 0 0 1
    outer loop
      vertex 7.7 -4.166 6.9625
      vertex 8.9 -0.2 6.9625
      vertex 7.7 4.166 6.9625
    endloop
  endfacet
  facet normal 0 0 1
    outer loop
      vertex 8.9 -0.2 6.9625
      vertex 7.7 -4.166 6.9625
      vertex 9.2 -4.166 6.9625
    endloop
  endfacet
  facet normal 0 1 -0
    outer loop
      vertex 9.2 4.166 -6.9625
      vertex 7.7 4.166 6.9625
      vertex 9.2 4.166 6.9625
    endloop
  endfacet
  facet normal 0 1 0
    outer loop
      vertex 7.7 4.166 6.9625
      vertex 9.2 4.166 -6.9625
      vertex 7.7 4.166 -6.9625
    endloop
  endfacet
  facet normal 0 -1 0
    outer loop
      vertex 7.7 -4.166 -6.9625
      vertex 9.2 -4.166 6.9625
      vertex 7.7 -4.166 6.9625
    endloop
  endfacet
  facet normal 0 -1 -0
    outer loop
      vertex 9.2 -4.166 6.9625
      vertex 7.7 -4.166 -6.9625
      vertex 9.2 -4.166 -6.9625
    endloop
  endfacet
  facet normal 1 -0 0
    outer loop
      vertex 8.9 -0.2 6.9625
      vertex 8.9 0.2 -6.9625
      vertex 8.9 0.2 6.9625
    endloop
  endfacet
  facet normal 1 0 0
    outer loop
      vertex 8.9 0.2 -6.9625
      vertex 8.9 -0.2 6.9625
      vertex 8.9 -0.2 -6.9625
    endloop
  endfacet
  facet normal 0 -1 0
    outer loop
      vertex 8.9 0.2 -6.9625
      vertex 9.2 0.2 6.9625
      vertex 8.9 0.2 6.9625
    endloop
  endfacet
  facet normal 0 -1 -0
    outer loop
      vertex 9.2 0.2 6.9625
      vertex 8.9 0.2 -6.9625
      vertex 9.2 0.2 -6.9625
    endloop
  endfacet
  facet normal 0 1 -0
    outer loop
      vertex 9.2 -0.2 -6.9625
      vertex 8.9 -0.2 6.9625
      vertex 9.2 -0.2 6.9625
    endloop
  endfacet
  facet normal 0 1 0
    outer loop
      vertex 8.9 -0.2 6.9625
      vertex 9.2 -0.2 -6.9625
      vertex 8.9 -0.2 -6.9625
    endloop
  endfacet
  facet normal 0 0 -1
    outer loop
      vertex 3.6 -3.984 -1.4225
      vertex 6.5 3.984 -1.4225
      vertex 6.5 -3.984 -1.4225
    endloop
  endfacet
  facet normal -0 0 -1
    outer loop
      vertex 6.5 3.984 -1.4225
      vertex 3.6 -3.984 -1.4225
      vertex 3.6 3.984 -1.4225
    endloop
  endfacet
  facet normal 1 -0 0
    outer loop
      vertex 6.5 -3.984 1.4225
      vertex 6.5 3.984 -1.4225
      vertex 6.5 3.984 1.4225
    endloop
  endfacet
  facet normal 1 0 0
    outer loop
      vertex 6.5 3.984 -1.4225
      vertex 6.5 -3.984 1.4225
      vertex 6.5 -3.984 -1.4225
    endloop
  endfacet
  facet normal -0 0 1
    outer loop
      vertex 3.6 3.984 1.4225
      vertex 6.5 -3.984 1.4225
      vertex 6.5 3.984 1.4225
    endloop
  endfacet
  facet normal 0 0 1
    outer loop
      vertex 6.5 -3.984 1.4225
      vertex 3.6 3.984 1.4225
      vertex 3.6 -3.984 1.4225
    endloop
  endfacet
  facet normal 0 1 -0
    outer loop
      vertex 6.5 3.984 -1.4225
      vertex 3.6 3.984 1.4225
      vertex 6.5 3.984 1.4225
    endloop
  endfacet
  facet normal 0 1 0
    outer loop
      vertex 3.6 3.984 1.4225
      vertex 6.5 3.984 -1.4225
      vertex 3.6 3.984 -1.4225
    endloop
  endfacet
  facet normal 0 -1 0
    outer loop
      vertex 3.6 -3.984 -1.4225
      vertex 6.5 -3.984 1.4225
      vertex 3.6 -3.984 1.4225
    endloop
  endfacet
  facet normal 0 -1 -0
    outer loop
      vertex 6.5 -3.984 1.4225
      vertex 3.6 -3.984 -1.4225
      vertex 6.5 -3.984 -1.4225
    endloop
  endfacet
endsolid OpenSCAD_Model
